<svg xmlns="http://www.w3.org/2000/svg" xmlns:xlink="http://www.w3.org/1999/xlink" width="1200" zoomAndPan="magnify" viewBox="0 0 900 599.999999" height="800" preserveAspectRatio="xMidYMid meet" version="1.2"><g id="be8f081528"><rect x="0" width="900" y="0" height="599.999999" style="fill:#ffffff;fill-opacity:1;stroke:none;"/><rect x="0" width="900" y="0" height="599.999999" style="fill:#ffffff;fill-opacity:1;stroke:none;"/><path style=" stroke:none;fill-rule:evenodd;fill:#2937ef;fill-opacity:1;" d="M 308.96875 19.871094 C 290.242188 22.574219 273.695312 29.128906 261.074219 38.832031 C 253.039062 45.011719 241.019531 57.816406 236.300781 65.222656 C 234.234375 68.460938 213.597656 108.699219 190.4375 154.632812 C 167.277344 200.570312 142.1875 250.179688 134.6875 264.878906 C 63.78125 403.832031 15.285156 501.300781 13.363281 508.707031 C 5.910156 537.4375 22.679688 564.980469 51.730469 571.722656 C 55.75 572.652344 67.84375 573.199219 86.890625 573.304688 C 132.035156 573.554688 141.234375 572.242188 160.304688 562.84375 C 173.058594 556.5625 185.449219 546 193.789062 534.316406 C 197.800781 528.695312 233.550781 457.789062 254.703125 413.5 C 261.40625 399.46875 254.835938 400.789062 319.941406 400.382812 C 381.710938 400 385.871094 400.3125 390.980469 405.730469 C 392.632812 407.476562 403.191406 426.609375 414.453125 448.25 C 425.710938 469.886719 438.027344 493.347656 441.824219 500.378906 C 457.71875 529.828125 477.25 549.65625 502.175781 561.648438 C 523.328125 571.828125 542.066406 575.566406 567.320312 574.652344 C 606.667969 573.21875 632.828125 562.347656 660.160156 536.066406 C 670.003906 526.601562 676.453125 518.484375 683 507.332031 C 684.894531 504.101562 699.535156 476.039062 715.53125 444.96875 C 731.527344 413.902344 745.996094 385.980469 747.6875 382.917969 C 749.375 379.855469 755.898438 367.328125 762.179688 355.078125 C 768.464844 342.828125 774.984375 330.300781 776.675781 327.238281 C 778.363281 324.175781 786.636719 308.390625 795.058594 292.160156 C 803.480469 275.929688 812.992188 257.640625 816.195312 251.515625 C 825.144531 234.410156 852.957031 180.652344 866.035156 155.191406 C 894.144531 100.460938 895.230469 97.886719 896.574219 82.769531 C 899.230469 52.878906 878.253906 25.371094 849.042969 20.445312 C 843.820312 19.5625 829.640625 19.304688 804.835938 19.632812 C 771.992188 20.070312 767.484375 20.351562 760 22.460938 C 737.582031 28.777344 718.371094 43.351562 705.101562 64.113281 C 703.03125 67.351562 690.003906 92.300781 676.15625 119.554688 C 639.023438 192.625 593.785156 282.09375 577.617188 314.433594 C 569.808594 330.050781 562.945312 343.171875 562.359375 343.589844 C 560.914062 344.632812 559.9375 343.871094 558.121094 340.300781 C 553.710938 331.625 518.394531 264.203125 487.699219 205.859375 C 484.476562 199.734375 478.449219 188.207031 474.308594 180.246094 C 470.164062 172.285156 464.652344 161.761719 462.058594 156.859375 C 459.464844 151.960938 448.203125 130.675781 437.035156 109.5625 C 425.867188 88.449219 414.703125 68.152344 412.226562 64.460938 C 406.25 55.558594 391.480469 41.082031 382.359375 35.183594 C 362.285156 22.199219 333.871094 16.269531 308.96875 19.867188 M 781.523438 76.128906 C 770.234375 77.78125 759.472656 84.335938 753.433594 93.234375 C 751.714844 95.769531 736.378906 125.402344 719.355469 159.085938 C 702.328125 192.773438 684.269531 228.351562 679.222656 238.152344 C 674.175781 247.953125 658.652344 278.269531 644.726562 305.523438 C 630.796875 332.777344 618.28125 357.082031 616.914062 359.53125 C 615.542969 361.980469 609.492188 373.65625 603.464844 385.472656 C 597.433594 397.289062 590.882812 408.851562 588.902344 411.164062 C 586.921875 413.476562 582.136719 417.085938 578.261719 419.1875 C 571.632812 422.78125 570.589844 423.003906 560.636719 422.988281 C 551.683594 422.972656 549.203125 422.550781 544.492188 420.238281 C 535.480469 415.820312 529.710938 408.992188 520.957031 392.382812 C 506.414062 364.796875 477.652344 310.003906 447.300781 252.070312 C 374.664062 113.4375 366.464844 98.195312 360.734375 91.160156 C 352.308594 80.8125 337.84375 75.601562 319.613281 76.347656 C 310.109375 76.738281 307.507812 77.273438 302.464844 79.878906 C 295.523438 83.460938 287.71875 90.355469 283.421875 96.703125 C 281.753906 99.164062 269.71875 122.226562 256.675781 147.953125 C 243.632812 173.675781 229.328125 201.738281 224.882812 210.3125 C 210.21875 238.617188 185 288.433594 129.15625 399.40625 C 91.132812 474.964844 74.003906 510.101562 74.003906 512.527344 C 74.003906 517.367188 76.820312 518.222656 92.726562 518.195312 C 122.230469 518.152344 134.15625 515.082031 144.167969 504.949219 C 149.941406 499.109375 153.621094 492.121094 204.585938 390.15625 C 287.867188 223.539062 302.886719 194.332031 308.03125 189.027344 C 317.835938 178.917969 334.769531 179.691406 343.277344 190.632812 C 345.027344 192.882812 350.238281 201.988281 354.859375 210.867188 C 409.496094 315.855469 432.097656 359.152344 434.199219 362.871094 C 435.582031 365.324219 441.613281 376.847656 447.597656 388.484375 C 497.695312 485.886719 498.183594 486.769531 506.546875 495.132812 C 521.691406 510.277344 540.058594 517.339844 564.066406 517.257812 C 586.457031 517.179688 604.039062 510.816406 618.273438 497.632812 C 631.539062 485.355469 627.355469 492.644531 685.652344 380.132812 C 711.738281 329.78125 730.914062 292.59375 777.8125 201.402344 C 784.113281 189.15625 798.144531 162.09375 808.992188 141.269531 C 842.363281 77.210938 840.664062 81.097656 836.902344 77.335938 C 834.679688 75.117188 833.515625 75.019531 810.914062 75.152344 C 797.898438 75.226562 784.671875 75.667969 781.523438 76.128906 M 321.777344 281.417969 C 318.847656 285.894531 293.378906 338.054688 293.378906 339.585938 C 293.378906 340.378906 294.492188 341.8125 295.855469 342.765625 C 297.929688 344.21875 302.703125 344.5 325.4375 344.5 C 341.992188 344.5 353.382812 344.050781 354.699219 343.347656 C 355.964844 342.667969 356.851562 341.019531 356.851562 339.351562 C 356.851562 336.941406 330.824219 284.289062 327.605469 280.1875 C 325.925781 278.050781 323.671875 278.527344 321.777344 281.417969 "/></g></svg>